<?xml version="1.0" encoding="utf-8"?>
<!-- Generator: Adobe Illustrator 16.0.0, SVG Export Plug-In . SVG Version: 6.00 Build 0)  -->
<!DOCTYPE svg PUBLIC "-//W3C//DTD SVG 1.1//EN" "http://www.w3.org/Graphics/SVG/1.1/DTD/svg11.dtd">
<svg version="1.1" id="Layer_2" xmlns="http://www.w3.org/2000/svg" xmlns:xlink="http://www.w3.org/1999/xlink" x="0px" y="0px"
	 width="2206px" height="1972px" viewBox="0 0 2206 1972" enable-background="new 0 0 2206 1972" xml:space="preserve">
<g>
	<path fill-rule="evenodd" clip-rule="evenodd" fill="#DDDCDC" d="M830.78,769.296c-21.766,0-43.519,0-65.492,0
		c-2.4-8.625,0.534-17.021-1.256-25.548c-7.386-2.84-15.647,0.54-23.778-2.144c0.664-5.8,3.18-10.622,5.409-15.453
		c14.233-30.843,30.701-60.52,47.702-89.917c27.131-46.916,57.824-91.537,89.073-135.766
		c41.821-59.192,85.574-116.925,134.528-170.57c91.842-100.642,197.918-182.524,321.625-241.24
		c46.766-22.197,95.311-38.126,146.76-45.654c52.349-7.66,104.188-6.027,155.119,7.729
		c92.412,24.961,152.815,83.598,181.553,174.473c11.361,35.93,18.059,72.614,18.738,110.319
		c0.878,48.649,1.176,97.268-4.521,145.732c-9.011,76.641-27.788,150.921-53.969,223.446
		c-66.394,183.943-154.393,357.123-262.815,520.059c-56.517,84.935-117.209,166.822-184.187,243.951
		c-27.754,31.963-56.667,62.931-84.658,94.695c-15.901,18.045-30.813,36.946-46.554,55.135c-6.382,7.37-9.214,14.948-6.862,24.637
		c1.26,5.199,2.267,10.67,1.146,16.082c-1.625,3.705-4.461,6.348-7.156,9.076c-21.43,21.688-43.005,43.238-64.257,65.1
		c-6.427,6.611-13.479,10.402-22.91,10.249c-6.727-0.11-13.464,0.949-20.206,1.28c-7.014,0.344-11.951,4.196-16.422,9.018
		c-17.234,18.583-34.511,37.127-51.715,55.738c-36.583,39.58-73.129,79.194-109.706,118.78c-0.421,0.457-1.028,0.745-1.552,1.107
		c-8.73-1.422-133.325-62.822-142.146-70.11c37.18-41.352,75.259-81.905,112.205-123.9c-3.643-1.967-6.167-0.949-8.653-0.804
		c-39.718,2.323-79.296,1.399-117.942-8.847c-76.798-20.364-132.304-66.551-165.714-138.319
		c-22.354-48.016-35.073-98.688-41.135-151.221c-4.958-42.965-2.671-85.572,3.413-128.193
		c5.063-35.468,10.074-70.952,14.307-106.523c1.832-15.404,9.027-25.356,23.479-30.834c16.778-6.358,32.556-14.965,49.7-23.214
		c1.714,15.63-0.035,30.494,1.173,46.456c18.472,0,36.624,0,55.146,0c0.052,9.275-1.803,17.056-2.907,24.883
		c-5.713,40.548-12.75,80.932-15.364,121.864c-2.821,44.184-2.771,88.282,4.986,132.058c3.981,22.468,10.209,44.226,21.709,64.242
		c18.507,32.21,46.376,52.671,81.452,63.717c40.964,12.9,82.199,11.906,123.907,2.673c52.901-11.713,101.375-32.872,145.579-63.823
		c44.13-30.898,84.526-66.182,120.083-106.48c69.399-78.648,137.877-158.129,200.542-242.261
		c62.4-83.778,115.015-173.563,161.596-266.867c41.363-82.859,79.1-167.286,109.692-254.729
		c16.18-46.244,30.59-93.01,40.304-141.094c6.471-32.028,10.479-64.35,13.313-96.901c1.67-19.162,2.898-38.336,2.666-57.477
		c-0.594-48.384-7.57-95.731-28.945-139.859c-19.509-40.274-52.23-64.015-96.034-72.845
		c-50.794-10.239-100.681-4.832-149.644,10.233c-60.472,18.604-115.549,48.205-167.529,83.718
		c-60.5,41.334-114.674,89.876-164.35,143.476c-29.675,32.02-57.245,65.754-83.607,100.529
		c-40.933,53.994-76.609,111.426-112.762,168.555c-18.156,28.69-36.812,57.097-51.924,87.589
		C838.622,760.12,836.083,765.042,830.78,769.296z"/>
	<path fill-rule="evenodd" clip-rule="evenodd" fill="#DDDCDC" d="M54.649,1027.443c11.598,0,22.795,0,36.46,0
		c-2.707,40.83-5.403,81.506-8.142,122.813c-11.852,0-28.632,0-38.635,0"/>
	<path fill-rule="evenodd" clip-rule="evenodd" fill="#DDDCDC" d="M2161.646,864.969c-13.938,0-27.875,0-42.949,0
		c0-34.729,0-68.226,0-103.667c14.021,0,28.485,0,42.949,0C2161.646,795.856,2161.646,830.413,2161.646,864.969z"/>
	<path fill-rule="evenodd" clip-rule="evenodd" fill="#DDDCDC" d="M747.095,1177.381c-31.344,0-60.694,0-92.859,0
		c0-26.184,0-52.537,0-81.579c-46.756,26.083-90.229,50.333-136.039,75.887c-12.511-25.44-23.813-48.426-34.293-69.735
		c46.869-18.759,92.668-37.089,138.467-55.419c-0.684-2.216-1.368-4.433-2.052-6.651c-33.21,0-66.421,0-101.782,0
		c0-56.086,0-110.77,0-166.818c43.349,0,87.922,0,133.35,0c0-5.59,0-9.845,0-15.773c-50.943,0-101.872,0-153.753,0
		c0-22.847,0-44.061,0-66.228c50.19,0,100.496,0,152.104,0c0.421-9.198,0.848-18.495,1.318-28.741c31.611,0,62.358,0,94.79,0
		c0,9.074,0,17.764,0,27.819c54.89,0,108.125,0,162.452,0c0,22.168,0,42.967,0,64.866c-53.414,0-106.692,0-160.96,0
		c0,6.522,0,11.976,0,19.014c44.108,0,87.898,0,130.983,0c0,55.674,0,109.746,0,165.158c-35.881,0-69.501,0-103.121,0
		c-0.479,1.607-0.959,3.213-1.438,4.817c46.16,19.142,92.321,38.282,139.285,57.754c-9.802,21.772-19.842,44.075-31.616,70.226
		c-45.209-25.642-89.34-50.677-134.835-76.482C747.095,1122.975,747.095,1149.588,747.095,1177.381z M747.5,937.35
		c0,14.5,0,27.022,0,39.932c16.955,0,33.215,0,50.218,0c0-14.052,0-27.139,0-39.932C780.798,937.35,764.747,937.35,747.5,937.35z
		 M651.971,975.825c0-13.629,0-26.19,0-39.052c-16.569,0-32.335,0-48.44,0c0,13.366,0,25.929,0,39.052
		C619.855,975.825,635.389,975.825,651.971,975.825z"/>
	<path fill-rule="evenodd" clip-rule="evenodd" fill="#DDDCDC" d="M1941.221,1171.36c-54.949,0-107.53,0-161.803,0
		c0-136.89,0-273.294,0-410.467c54.215,0,106.998,0,161.168,0c0,49.489,0,97.589,0,148.136
		c64.199,15.78,127.699,31.388,190.252,46.764c0,21.769,0,41.99,0,63.229c-63.934-15.249-125.819-30.011-189.617-45.229
		C1941.221,1040.098,1941.221,1105.023,1941.221,1171.36z"/>
	<path fill-rule="evenodd" clip-rule="evenodd" fill="#DDDCDC" d="M1166.902,1173.273c-21.499-98.855-43.058-197.987-64.815-298.031
		c59.835,0,118.485,0,178.614,0c21.957,98.962,43.912,197.915,66.125,298.031
		C1286.486,1173.273,1228.098,1173.273,1166.902,1173.273z"/>
	<path fill-rule="evenodd" clip-rule="evenodd" fill="#DDDCDC" d="M46.385,940.432c13.374-0.229,40.174-0.563,57.269-0.563
		c-19.109-18.545-36.442-32.848-52.127-49.807c-3.611-3.904-7.232-14.503-4.862-19.2C73.5,834.5,89.25,799.75,104.094,755.594
		c15.857,7.399,39.556,17.479,59.798,26.923c-19.534,43.785-30.896,63.851-42.418,86.846c2.28,1.342,7.544,1.87,10.007,0.895
		c12.463-20.665,20.196-35.794,32.534-60.115c13.608,6.253,28.487,11.268,45.781,19.214c-9.048,22.758-20.057,45.525-29.325,68.836
		c10.152,0,21.808-0.877,33.013-0.877c1.971,39.478,3.881,77.725,5.858,117.292c-13.403,0-25.045,0-38.027,0
		c-1.11-2.181-2.781-5.462-4.595-9.024c-2.686,0-5.458,0-9.474,0c0,57.85,0,115.24,0,173.438c-22.119,0-43.002,0-67.016,0
		c0-58.137,0-116.047,0-175.648c-19.427,0-35.789,0-53.745,0 M175.035,937.32c-0.491-8.232-0.904-15.164-1.674-28.08
		c-6.95,12.741-10.737,19.685-15.315,28.08C164.704,937.32,168.978,937.32,175.035,937.32z"/>
	<path fill-rule="evenodd" clip-rule="evenodd" fill="#DDDCDC" d="M219.343,898.678c21.063-0.602,53.32-1.063,75.378-1.063
		c0-8.168,0-15.598,0-23.984c-27.737,0-55.622,0-84.085,0c0-24.589,0-49.246,0-75.271c28.587,0,55.88,0,84.88,0
		c0-11.919,0-22.515,0-33.865c29.295,0,56.861,0,86.537,0c0.366,11.311-0.228,22.499,0.019,32.744
		c28.559,0,59.925,0.096,90.283,0.096c0,25.316,0,49.435,0,74.865c-28.923,0-59.571,0.239-90.603,0.239
		c-0.597,8.664,0.596,15.982-0.032,25.1c27.212,0,52.92,0,79.072,0c0,22.132,0,42.797,0,64.759c-81.723,0-160.919,0-241.672,0"/>
	<path fill-rule="evenodd" clip-rule="evenodd" fill="#DDDCDC" d="M456.363,1177.356c-29.564,0-55.976,0-83.097,0
		c-0.618-5.972-1.19-11.493-1.842-17.786c-22.609,0-44.466,0-67.233,0c-0.59,5.511-1.182,11.029-1.691,15.78
		c-26.771,0-52.589,0-77.425,0c0-63.63,0-124.734,0-187.622c79.085,0,155.845,0,231.288,0
		C456.363,1051.561,456.363,1113.963,456.363,1177.356z M305.87,1094.697c21.992,0,42.636,0,63.589,0c0-13.851,0-26.986,0-40.623
		c-21.85,0-42.658,0-63.589,0C305.87,1068.01,305.87,1080.985,305.87,1094.697z"/>
	<path fill-rule="evenodd" clip-rule="evenodd" fill="#DDDCDC" d="M1007.842,1167.916c-23.132,0-44.157,0-66.661,0
		c30.197-135.639,60.24-270.591,90.077-404.616c20.986,0,40.209,0,62.626,0C1064.914,899.534,1036.433,1033.465,1007.842,1167.916z"
		/>
	<path fill-rule="evenodd" clip-rule="evenodd" fill="#DDDCDC" d="M1347.822,763.882c38.623,0,76.153,0,114.383,0
		c0,18.938,0,37.222,0,56.199c-38.166,0-75.641,0-114.383,0C1347.822,801.3,1347.822,783.086,1347.822,763.882z"/>
	<path fill-rule="evenodd" clip-rule="evenodd" fill="#DDDCDC" d="M174.316,1026.706c13.146,0,24.212,0,37.531,0
		c2.158,37.81,4.298,75.288,6.494,113.78c-13.333,0-25.516,0-38.914,0C177.725,1102.578,176.047,1065.241,174.316,1026.706z"/>
	<path fill-rule="evenodd" clip-rule="evenodd" fill="#DDDCDC" d="M2102.508,762.275c0,33.763,0,66.525,0,100.971
		c-12.339,0-25.572,0-39.795,0c0-32.785,0-66.377,0-100.971C2075.248,762.275,2088.011,762.275,2102.508,762.275z"/>
	<path fill-rule="evenodd" clip-rule="evenodd" fill="#DDDCDC" d="M1227.854,760.074c13.236,0,26.199,0,40.16,0
		c0,31.79,0,63.463,0,96.131c-13.385,0-26.227,0-40.16,0C1227.854,824.118,1227.854,792.442,1227.854,760.074z"/>
	<path fill-rule="evenodd" clip-rule="evenodd" fill="#DDDCDC" d="M1287.27,760.023c12.594,0,24.257,0,36.652,0
		c0,31.999,0,63.371,0,95.966c-12.123,0-23.885,0-36.652,0C1287.27,824.066,1287.27,792.459,1287.27,760.023z"/>
</g>
</svg>
